<?xml version="1.0" encoding="utf-8"?>
<!-- Generator: Adobe Illustrator 24.3.0, SVG Export Plug-In . SVG Version: 6.00 Build 0)  -->
<svg version="1.1" id="Layer_1" xmlns="http://www.w3.org/2000/svg" xmlns:xlink="http://www.w3.org/1999/xlink" x="0px" y="0px"
	 viewBox="0 0 365 116" style="enable-background:new 0 0 365 116;" xml:space="preserve">
<style type="text/css">
	.st0{fill:#0077B5;}
	.st1{clip-path:url(#SVGID_2_);}
	.st2{fill:#FFFFFF;}
	.st3{fill:#E5A229;}
</style>
<g>
	<path class="st0" d="M93.2,45.8L93.2,45.8l-3,0c-0.9,11.3-10.4,20.3-22,20.3C56,66.1,46.2,56.2,46.2,44c0-12.2,9.9-22.1,22.1-22.1
		c11.3,0,20.7,8.5,21.9,19.5h3.1v0h8c-1.2-17.7-16-31.7-34-31.7c-21.7,0-48.5,34.1-48.5,34.1s26.8,34.1,48.5,34.1
		c18.2,0,33-14.2,34-32.1H93.2z"/>
	<polygon class="st0" points="357.5,80.4 193.7,80.4 150.9,12.2 357.5,12.2 	"/>
	<g>
		<defs>
			<polygon id="SVGID_1_" points="357.6,80.4 193.8,80.4 150.9,12.2 357.6,12.2 			"/>
		</defs>
		<clipPath id="SVGID_2_">
			<use xlink:href="#SVGID_1_"  style="overflow:visible;"/>
		</clipPath>
		<g class="st1">
			<path class="st2" d="M174.4,60.6l4.4-2.6c3.1,5.7,6.7,8.5,10.7,8.5c1.7,0,3.4-0.4,4.9-1.2c1.5-0.8,2.7-1.9,3.5-3.3
				c0.8-1.4,1.2-2.8,1.2-4.3c0-1.7-0.6-3.4-1.8-5.1c-1.6-2.3-4.6-5.1-8.9-8.3c-4.3-3.3-7-5.6-8.1-7.1c-1.8-2.4-2.7-5.1-2.7-7.9
				c0-2.3,0.5-4.3,1.6-6.2c1.1-1.9,2.6-3.3,4.6-4.4c2-1.1,4.1-1.6,6.4-1.6c2.4,0,4.7,0.6,6.8,1.8c2.1,1.2,4.4,3.4,6.7,6.7l-4.2,3.2
				c-1.9-2.6-3.6-4.3-5-5.1s-2.9-1.2-4.5-1.2c-2.1,0-3.8,0.6-5.1,1.9c-1.3,1.3-2,2.8-2,4.7c0,1.1,0.2,2.2,0.7,3.3
				c0.5,1.1,1.3,2.2,2.6,3.4c0.7,0.7,2.9,2.4,6.7,5.2c4.5,3.3,7.5,6.2,9.2,8.8c1.7,2.6,2.5,5.2,2.5,7.8c0,3.8-1.4,7-4.3,9.8
				s-6.3,4.1-10.4,4.1c-3.1,0-6-0.8-8.5-2.5C178.9,67.3,176.6,64.5,174.4,60.6z"/>
			<path class="st2" d="M243.4,57.5l4.1,2.2c-1.4,2.7-2.9,4.8-4.7,6.5s-3.8,2.9-6,3.7c-2.2,0.9-4.8,1.3-7.6,1.3
				c-6.2,0-11.1-2-14.6-6.1s-5.3-8.7-5.3-13.9c0-4.9,1.5-9.2,4.5-13c3.8-4.8,8.8-7.2,15.2-7.2c6.5,0,11.7,2.5,15.6,7.4
				c2.8,3.5,4.2,7.9,4.2,13.1h-34.4c0.1,4.4,1.5,8.1,4.3,10.9s6.1,4.3,10.2,4.3c1.9,0,3.8-0.3,5.7-1c1.8-0.7,3.4-1.6,4.7-2.7
				C240.5,61.8,241.9,60,243.4,57.5z M243.4,47.2c-0.7-2.6-1.6-4.7-2.9-6.3s-2.9-2.8-5-3.8c-2.1-1-4.2-1.4-6.5-1.4
				c-3.8,0-7,1.2-9.7,3.6c-2,1.8-3.5,4.4-4.5,7.9H243.4z"/>
			<path class="st2" d="M258.7,17.8h4.9V32h7.8v4.3h-7.8v34h-4.9v-34H252V32h6.7V17.8z"/>
			<path class="st2" d="M274.6,32h4.9v17.9c0,4.4,0.2,7.4,0.7,9c0.7,2.3,2,4.2,4,5.6s4.3,2,7.1,2c2.7,0,5.1-0.7,7-2
				c1.9-1.3,3.2-3.1,4-5.2c0.5-1.5,0.7-4.6,0.7-9.4V32h5v18.8c0,5.3-0.6,9.2-1.8,11.9s-3.1,4.8-5.6,6.3s-5.6,2.3-9.3,2.3
				s-6.8-0.8-9.3-2.3s-4.4-3.6-5.6-6.3s-1.8-6.8-1.8-12.2V32z"/>
			<path class="st2" d="M315.4,32h4.9v7c1.9-2.7,4.2-4.7,6.7-6s5.3-2,8.5-2c5.4,0,10.1,2,13.9,5.9s5.8,8.6,5.8,14.1
				c0,5.6-1.9,10.4-5.7,14.3s-8.4,5.9-13.9,5.9c-3,0-5.8-0.6-8.4-1.9c-2.6-1.3-4.9-3.2-6.9-5.7v20.6h-4.9V32z M335.1,35.7
				c-4.3,0-7.8,1.5-10.8,4.5c-2.9,3-4.4,6.7-4.4,11.1c0,2.9,0.6,5.5,1.9,7.8c1.3,2.3,3.2,4.2,5.6,5.5c2.4,1.4,5,2,7.7,2
				c2.6,0,5.1-0.7,7.5-2.1c2.3-1.4,4.2-3.3,5.6-5.7s2.1-5,2.1-7.7c0-2.7-0.7-5.3-2.1-7.7c-1.4-2.4-3.2-4.3-5.5-5.7
				S337.9,35.7,335.1,35.7z"/>
		</g>
	</g>
	<g id="XMLID_1_">
		<path class="st3" d="M18.3,87.5h5.1c3.6,0,5.1,1.5,5.1,4.5v1.2c0,2-0.7,3.3-2.2,3.9v0.1c1.7,0.5,2.3,1.9,2.3,4.2v3.5
			c0,1,0,1.7,0.4,2.4h-3.5c-0.2-0.5-0.3-0.8-0.3-2.4v-3.6c0-1.8-0.6-2.4-2.2-2.4h-1.2v8.4h-3.4V87.5z M23,95.9
			c1.3,0,2.1-0.5,2.1-2.1v-1.5c0-1.4-0.5-2-1.7-2h-1.6v5.6H23z"/>
		<path class="st3" d="M30.9,87.5h9.4v2.8h-5.9v5.2h4.7v2.8h-4.7v6h5.9v2.8h-9.4V87.5z"/>
		<path class="st3" d="M42.3,87.5h4.9l2.2,14.1h0.1l2.2-14.1h4.9v19.7h-3.2V92.3h-0.1l-2.5,14.9h-2.9l-2.5-14.9h-0.1v14.9h-3V87.5z"
			/>
		<path class="st3" d="M58.8,102.5V92.2c0-3.2,1.8-5,5.2-5c3.4,0,5.2,1.8,5.2,5v10.4c0,3.2-1.8,5-5.2,5
			C60.7,107.5,58.8,105.7,58.8,102.5z M65.8,102.7V92c0-1.4-0.7-1.9-1.8-1.9c-1.1,0-1.8,0.5-1.8,1.9v10.7c0,1.4,0.7,1.9,1.8,1.9
			C65.1,104.7,65.8,104.1,65.8,102.7z"/>
		<path class="st3" d="M74.1,90.3h-3.6v-2.8h10.6v2.8h-3.6v16.9h-3.4V90.3z"/>
		<path class="st3" d="M82.8,87.5h9.4v2.8h-5.9v5.2h4.7v2.8h-4.7v6h5.9v2.8h-9.4V87.5z"/>
		<path class="st3" d="M99.1,87.5h3.4v8.3l4.4-8.3h3.4l-4.1,7.2l4.2,12.5h-3.6l-2.9-8.8l-1.4,2.5v6.3h-3.4V87.5z"/>
		<path class="st3" d="M112,87.5h9.4v2.8h-5.9v5.2h4.7v2.8h-4.7v6h5.9v2.8H112V87.5z"/>
		<path class="st3" d="M126.5,98.8l-4.2-11.3h3.7l2.3,7.2h0.1l2.3-7.2h3.3L130,98.8v8.4h-3.4V98.8z"/>
		<path class="st3" d="M143.4,90.3h-3.6v-2.8h10.6v2.8h-3.6v16.9h-3.4V90.3z"/>
		<path class="st3" d="M151.7,102.5V92.2c0-3.2,1.8-5,5.2-5c3.4,0,5.2,1.8,5.2,5v10.4c0,3.2-1.8,5-5.2,5
			C153.5,107.5,151.7,105.7,151.7,102.5z M158.7,102.7V92c0-1.4-0.7-1.9-1.8-1.9c-1.1,0-1.8,0.5-1.8,1.9v10.7c0,1.4,0.7,1.9,1.8,1.9
			C158,104.7,158.7,104.1,158.7,102.7z"/>
		<path class="st3" d="M172.6,98.8l-4.2-11.3h3.7l2.3,7.2h0.1l2.3-7.2h3.3L176,98.8v8.4h-3.4V98.8z"/>
		<path class="st3" d="M180.9,102.5V92.2c0-3.2,1.8-5,5.2-5c3.4,0,5.2,1.8,5.2,5v10.4c0,3.2-1.8,5-5.2,5
			C182.7,107.5,180.9,105.7,180.9,102.5z M187.9,102.7V92c0-1.4-0.7-1.9-1.8-1.9c-1.1,0-1.8,0.5-1.8,1.9v10.7c0,1.4,0.7,1.9,1.8,1.9
			C187.2,104.7,187.9,104.1,187.9,102.7z"/>
		<path class="st3" d="M193.5,102.5v-15h3.4v15.3c0,1.4,0.7,1.9,1.7,1.9s1.7-0.5,1.7-1.9V87.5h3.3v15c0,3.2-1.7,5-5.1,5
			C195.3,107.5,193.5,105.7,193.5,102.5z"/>
		<path class="st3" d="M206.2,87.5h5.1c3.6,0,5.1,1.5,5.1,4.5v1.2c0,2-0.7,3.3-2.2,3.9v0.1c1.7,0.5,2.3,1.9,2.3,4.2v3.5
			c0,1,0,1.7,0.4,2.4h-3.5c-0.2-0.5-0.3-0.8-0.3-2.4v-3.6c0-1.8-0.6-2.4-2.2-2.4h-1.2v8.4h-3.4V87.5z M210.9,95.9
			c1.3,0,2.1-0.5,2.1-2.1v-1.5c0-1.4-0.5-2-1.7-2h-1.6v5.6H210.9z"/>
		<path class="st3" d="M223.8,87.5h5.2c3.6,0,5.1,1.5,5.1,4.5v0.8c0,2-0.7,3.3-2.2,3.9v0.1c1.8,0.6,2.6,2,2.6,4.1v1.7
			c0,3-1.8,4.7-5.2,4.7h-5.4V87.5z M228.5,95.5c1.3,0,2.1-0.5,2.1-2.1v-1.1c0-1.4-0.5-2-1.7-2h-1.7v5.2H228.5z M229.2,104.4
			c1.2,0,1.8-0.5,1.8-1.9v-1.7c0-1.8-0.7-2.4-2.2-2.4h-1.5v6H229.2z"/>
		<path class="st3" d="M239,87.5h4.7l3.6,19.7h-3.4l-0.6-3.9v0.1h-3.9l-0.6,3.9h-3.2L239,87.5z M242.8,100.7l-1.5-9.7h-0.1l-1.5,9.7
			H242.8z"/>
		<path class="st3" d="M248.6,102.6V92.1c0-3,1.7-4.8,5.1-4.8s5.1,1.8,5.1,4.8v2.1h-3.2v-2.3c0-1.3-0.7-1.8-1.7-1.8
			s-1.7,0.5-1.7,1.8v11c0,1.3,0.7,1.8,1.7,1.8s1.7-0.5,1.7-1.8v-3h3.2v2.8c0,3-1.7,4.8-5.1,4.8S248.6,105.7,248.6,102.6z"/>
		<path class="st3" d="M260.8,87.5h3.4v8.3l4.4-8.3h3.4l-4.1,7.2l4.2,12.5h-3.6l-2.9-8.8l-1.4,2.5v6.3h-3.4V87.5z"/>
		<path class="st3" d="M273,102.5V92.2c0-3.2,1.8-5,5.2-5c3.4,0,5.2,1.8,5.2,5v10.4c0,3.2-1.8,5-5.2,5
			C274.8,107.5,273,105.7,273,102.5z M280,102.7V92c0-1.4-0.7-1.9-1.8-1.9s-1.8,0.5-1.8,1.9v10.7c0,1.4,0.7,1.9,1.8,1.9
			S280,104.1,280,102.7z"/>
		<path class="st3" d="M285.7,87.5h9.1v2.8h-5.7v5.5h4.4v2.8h-4.4v8.6h-3.4V87.5z"/>
		<path class="st3" d="M296.5,87.5h9.1v2.8h-5.7v5.5h4.4v2.8h-4.4v8.6h-3.4V87.5z"/>
		<path class="st3" d="M307.2,87.5h3.4v19.7h-3.4V87.5z"/>
		<path class="st3" d="M313,102.6V92.1c0-3,1.7-4.8,5.1-4.8s5.1,1.8,5.1,4.8v2.1h-3.2v-2.3c0-1.3-0.7-1.8-1.7-1.8s-1.7,0.5-1.7,1.8
			v11c0,1.3,0.7,1.8,1.7,1.8s1.7-0.5,1.7-1.8v-3h3.2v2.8c0,3-1.7,4.8-5.1,4.8S313,105.7,313,102.6z"/>
		<path class="st3" d="M325.2,87.5h9.4v2.8h-5.9v5.2h4.7v2.8h-4.7v6h5.9v2.8h-9.4V87.5z"/>
		<path class="st3" d="M341.5,87.5h3.4v19.7h-3.4V87.5z"/>
		<path class="st3" d="M350.2,90.3h-3.6v-2.8h10.6v2.8h-3.6v16.9h-3.4V90.3z"/>
	</g>
	<path class="st2" d="M115.9,74.2h-0.1c-1.6,0-2.9-1.3-2.9-2.9v-9.2c0-1.6,1.3-2.9,2.9-2.9h0.1c1.6,0,2.9,1.3,2.9,2.9v9.2
		C118.8,73,117.5,74.2,115.9,74.2z"/>
	<path class="st2" d="M137.9,74.2h-0.1c-1.6,0-2.9-1.3-2.9-2.9v-9.2c0-1.6,1.3-2.9,2.9-2.9h0.1c1.6,0,2.9,1.3,2.9,2.9v9.2
		C140.8,73,139.5,74.2,137.9,74.2z"/>
	<g>
		<polygon class="st2" points="91.5,44.1 91.5,48.4 168.8,48.4 165.9,44.1 		"/>
		<polygon class="st2" points="164.5,41.9 163.5,40.6 91.5,40.6 91.5,41.9 		"/>
	</g>
	<g>
		<polygon class="st2" points="140.8,41.9 140.8,40.1 140.8,24.1 152.8,24.1 149.6,19.2 135,19.2 135,41.9 		"/>
		<polygon class="st2" points="135,44.1 135,71.2 140.8,71.2 140.8,45 140.8,44.1 		"/>
	</g>
	<g>
		<polygon class="st2" points="118.8,41.9 118.8,40.1 118.8,24.1 130.8,24.1 127.6,19.2 113,19.2 113,41.9 		"/>
		<polygon class="st2" points="113,44.1 113,71.2 118.8,71.2 118.8,45 118.8,44.1 		"/>
	</g>
	<path class="st2" d="M88.1,44.1C87.9,55.1,79,63.9,68,63.9c-11.1,0-20.1-9-20.1-20.1c0-11.1,9-20.1,20.1-20.1
		c10.5,0,19.1,8,20,18.3h6C93.1,28.4,81.8,17.7,68,17.7c-14.4,0-26.1,11.7-26.1,26.1c0,14.4,11.7,26.1,26.1,26.1
		c14.3,0,25.9-11.5,26.1-25.8H88.1z"/>
</g>
<g>
</g>
<g>
</g>
<g>
</g>
<g>
</g>
<g>
</g>
<g>
</g>
</svg>
